<svg xmlns="http://www.w3.org/2000/svg" width="369" height="196.283" viewBox="0 0 369 196.283"><defs><style>.a{fill:#eaeaea;}.b{fill:#96d355;}.c{fill:#85c63f;}.d{opacity:0.126;}.e{fill:#fefffe;}.f{fill:#fcfdfc;}.g{fill:#039948;}.h{fill:#79b834;}</style></defs><g transform="translate(3 -444.091)"><path class="a" d="M0,553.117S179.344,578.75,367.962,472.2c3.437-3.05-3.018,2.536,0,0-.753,1.738,0,170.176,0,170.176H0Z" transform="translate(-3 -26)"/><path class="b" d="M0,553.117s190.136,22.489,367.962-101.088c3.437-3.05-3.018,2.536,0,0-.753,1.738,0,190.345,0,190.345H0Z" transform="translate(-3 -7)"/><path class="c" d="M0,589.823s188.026,2.318,362.143-137.794c3.382-3.05-2.971,2.536,0,0-.741,1.738,0,190.345,0,190.345H0Z" transform="translate(-2 -2)"/><g class="d" transform="translate(-0.106 315.867)"><path class="e" d="M341.214,370.2c4.49.017,6.222-2.34,4.955-6.172a14.992,14.992,0,0,0-2.372-4.393A40.506,40.506,0,0,0,324.573,345.7a13.77,13.77,0,0,0-5.3-.868c-3.449.193-4.989,2.307-4.094,5.622a12.013,12.013,0,0,0,.755,1.977,19.765,19.765,0,0,0,2.718,4.2,42.03,42.03,0,0,0,16.295,12A18.885,18.885,0,0,0,341.214,370.2Zm-51.527-42.142a10.739,10.739,0,0,0-5.771,1.265,5.032,5.032,0,0,0-2.492,5.89,10.014,10.014,0,0,0,2.8,4.754,22.789,22.789,0,0,0,16.038,6.887,10.27,10.27,0,0,0,5.4-1.167,5.116,5.116,0,0,0,2.57-6.368,10.5,10.5,0,0,0-2.71-4.379A22.967,22.967,0,0,0,289.687,328.055Zm10.432-2.928a10.263,10.263,0,0,0,5.21-1.187,4.92,4.92,0,0,0,2.461-6.044,10.366,10.366,0,0,0-3.135-4.765,20.039,20.039,0,0,0-10.611-5.062,12.783,12.783,0,0,0-6.274.385c-3.748,1.276-5.014,4.4-3.265,7.969a10.546,10.546,0,0,0,2.008,2.807A20.016,20.016,0,0,0,300.119,325.127Zm-36.468-4.991c-.449,0-.9-.037-1.348.006-3.178.305-6.23,1.008-8.683,3.223-2.588,2.338-2.669,5.456-.254,7.966a11.371,11.371,0,0,0,4.011,2.6A19.722,19.722,0,0,0,268.341,335a12.01,12.01,0,0,0,6.834-3.277,4.981,4.981,0,0,0,.345-7.106,9.785,9.785,0,0,0-3.313-2.59A18.347,18.347,0,0,0,263.651,320.136ZM93.594,344.354c-1.218,0-2.439-.047-3.653.017a12.128,12.128,0,0,0-2.265.387c-.879.218-1.849.495-2.07,1.492-.246,1.111.657,1.728,1.405,2.325a15.2,15.2,0,0,0,2.979,1.75,47.233,47.233,0,0,0,9.075,3.116,61.411,61.411,0,0,0,16.16,2.077,12.289,12.289,0,0,0,4.7-.85c1.4-.609,1.609-1.608.613-2.729a7.914,7.914,0,0,0-1.473-1.224,20.043,20.043,0,0,0-4.108-2.084A62.564,62.564,0,0,0,93.594,344.354Zm174.563-29.569a12.564,12.564,0,0,0,8.387-2.586,6.181,6.181,0,0,0,2.248-3.28c.628-2.389-.391-4.7-2.831-6.429-4.128-2.933-11.171-2.928-15.312.011-3.945,2.8-3.968,7.261-.024,10.059A12.423,12.423,0,0,0,268.157,314.786ZM167.484,361.4a37.236,37.236,0,0,0,10.283-1.238,14.925,14.925,0,0,0,4.254-1.764c2.542-1.617,2.5-3.506-.108-4.94a14.48,14.48,0,0,0-3.991-1.372,39.4,39.4,0,0,0-11.12-.628,31,31,0,0,0-9.221,1.834,9.9,9.9,0,0,0-3.014,1.679c-1.56,1.373-1.49,2.743.222,3.956a10.062,10.062,0,0,0,2.969,1.345A31.973,31.973,0,0,0,167.484,361.4Zm67.8-40.157a18.5,18.5,0,0,0-9.995,3.02,9.551,9.551,0,0,0-2.625,2.523c-1.64,2.411-1.1,4.749,1.421,6.186a7.832,7.832,0,0,0,2.713.951,17.805,17.805,0,0,0,12.521-2.645,9.52,9.52,0,0,0,2.791-2.625,3.97,3.97,0,0,0-1.429-6.2A10.848,10.848,0,0,0,235.285,321.242Zm-49.979,28.093c1.438-.119,2.722-.18,3.993-.337A29.329,29.329,0,0,0,199.9,345.77a8.94,8.94,0,0,0,3.09-2.557,2.092,2.092,0,0,0-.607-3.3,6.948,6.948,0,0,0-2.694-.97,25.979,25.979,0,0,0-8.809.067,27.419,27.419,0,0,0-9.967,3.341,9.684,9.684,0,0,0-2.136,1.628c-1.732,1.839-1.365,3.5,1,4.456a7.048,7.048,0,0,0,1.657.484C182.776,349.1,184.119,349.213,185.306,349.335Zm88.527-68.73c-3.785.035-6.556,1.038-8.639,3.514a5.583,5.583,0,0,0,.9,8.332c3.934,3.1,11.054,2.285,14.187-1.615a5.658,5.658,0,0,0-1.227-8.566A8.954,8.954,0,0,0,273.833,280.605ZM138.378,352.39a40.763,40.763,0,0,0,10.652-1.46,9.881,9.881,0,0,0,3.123-1.455c1.406-1.08,1.4-2.245-.021-3.275a10.17,10.17,0,0,0-3.346-1.419,31.29,31.29,0,0,0-7.036-.966,37.757,37.757,0,0,0-12.374,1.332,10.14,10.14,0,0,0-2.978,1.318c-1.7,1.182-1.7,2.513.021,3.617a10.558,10.558,0,0,0,3.019,1.225A40.981,40.981,0,0,0,138.378,352.39ZM240,315.764a16.71,16.71,0,0,0,8.478-2.731,11.181,11.181,0,0,0,3.875-3.941c1.5-2.739.525-5.115-2.44-6.042a6.632,6.632,0,0,0-1.886-.34,15.569,15.569,0,0,0-11.88,4.967,7.006,7.006,0,0,0-1.458,2.247,3.693,3.693,0,0,0,2.273,5.276A9.82,9.82,0,0,0,240,315.764Zm-26.757,5.394a21.873,21.873,0,0,0-12.915,4.289,7.316,7.316,0,0,0-2.3,2.552,2.469,2.469,0,0,0,1.2,3.684,6.671,6.671,0,0,0,2.594.664,22.436,22.436,0,0,0,14.866-4.208,8,8,0,0,0,2.142-2.191c1.208-1.9.681-3.494-1.4-4.3A11.445,11.445,0,0,0,213.248,321.158Zm62.518-60.56a8.791,8.791,0,0,0-7.219,3.117,5.768,5.768,0,0,0,2.065,9.3,8.582,8.582,0,0,0,9.236-1.153c2.073-1.58,3.228-3.705,2.638-6.379s-2.555-4.043-5.075-4.7A9.608,9.608,0,0,0,275.766,260.6ZM249.7,299.215a12.6,12.6,0,0,0,10.137-5.75,6.207,6.207,0,0,0,.776-1.752,3.9,3.9,0,0,0-3.222-5.152c-4.409-.889-10.509,2.39-12.255,6.587-1.311,3.152.2,5.7,3.6,6.063A9.087,9.087,0,0,0,249.7,299.215Zm-20.538,4.706c-5.228.629-9.7,2.7-13.026,6.906a5.345,5.345,0,0,0-.658,1.168c-.879,1.995-.179,3.4,1.915,3.892a6.649,6.649,0,0,0,2.477.121A19.785,19.785,0,0,0,230.6,310.83a9.31,9.31,0,0,0,1.7-2.076c1.621-2.676.573-4.648-2.563-4.833C229.544,303.911,229.351,303.921,229.158,303.921Zm-69.3,40.186a38,38,0,0,0,14.372-3.192,10.657,10.657,0,0,0,2.783-1.689c1.437-1.267,1.244-2.315-.532-2.925a8.782,8.782,0,0,0-2.644-.431,37.135,37.135,0,0,0-15.338,2.994,12.082,12.082,0,0,0-2.679,1.492c-.712.538-1.564,1.085-1.318,2.146s1.285,1.215,2.134,1.356A29.9,29.9,0,0,0,159.856,344.107Zm21.634-12.332a28.248,28.248,0,0,0,15.07-6.191,3.8,3.8,0,0,0,1.172-1.506,1.155,1.155,0,0,0-.71-1.7,4.224,4.224,0,0,0-1.89-.289,19.94,19.94,0,0,0-3.979.672,27.571,27.571,0,0,0-11.1,5.539c-.755.664-1.717,1.439-1.177,2.6C179.367,331.936,180.531,331.653,181.489,331.775Zm17.272-13.514a20.883,20.883,0,0,0,12.566-6.467c.787-.839,1.642-1.877.945-3.073-.669-1.148-1.99-1.06-3.129-.868a21.229,21.229,0,0,0-11.6,5.93,5.106,5.106,0,0,0-1.448,2.232,1.444,1.444,0,0,0,.977,1.972A10.912,10.912,0,0,0,198.761,318.262ZM150.6,328.572c.428-.073,1-.159,1.561-.269a34.1,34.1,0,0,0,8.639-3.184,26.568,26.568,0,0,0,6.131-3.952c.686-.624,1.783-1.3,1.322-2.336-.469-1.053-1.725-.719-2.618-.534a36.563,36.563,0,0,0-15.388,7.149,5.935,5.935,0,0,0-1.3,1.41c-.56.864-.253,1.487.733,1.661A8.867,8.867,0,0,0,150.6,328.572Zm8,5.894a28.444,28.444,0,0,0,14.158-5.793c.715-.565,1.707-1.259,1.209-2.348-.472-1.032-1.639-.907-2.572-.817a28.164,28.164,0,0,0-14.459,5.64c-.753.566-1.713,1.29-1.423,2.312C155.874,334.732,157.178,334.332,158.6,334.466Zm19.735-13.375a21.045,21.045,0,0,0,11.989-6.194c.623-.641,1.32-1.463.811-2.385-.531-.962-1.585-.885-2.567-.71a21.672,21.672,0,0,0-10.845,5.463,6.69,6.69,0,0,0-1,1.162c-.4.579-.852,1.216-.406,1.942C176.739,321.064,177.526,320.978,178.335,321.091Z" transform="translate(0 -55.064)"/><path class="f" d="M760.447,184q0,.132,0,.263l-2.7.025c0-.1,0-.193,0-.289Z" transform="translate(-483.213 0)"/><path class="g" d="M927.734,585.545a18.886,18.886,0,0,1-6.264-1.571,42.031,42.031,0,0,1-16.295-12,19.773,19.773,0,0,1-2.718-4.2,12.022,12.022,0,0,1-.755-1.977c-.895-3.315.645-5.429,4.094-5.622a13.772,13.772,0,0,1,5.3.868,40.506,40.506,0,0,1,19.223,13.935,14.992,14.992,0,0,1,2.372,4.393C933.956,583.205,932.224,585.562,927.734,585.545Z" transform="translate(-586.52 -270.412)"/><path class="g" d="M790.053,500.546a22.967,22.967,0,0,1,15.832,6.881,10.5,10.5,0,0,1,2.71,4.379,5.116,5.116,0,0,1-2.57,6.368,10.271,10.271,0,0,1-5.4,1.167,22.79,22.79,0,0,1-16.037-6.887,10.013,10.013,0,0,1-2.8-4.754,5.032,5.032,0,0,1,2.492-5.89A10.738,10.738,0,0,1,790.053,500.546Z" transform="translate(-500.366 -227.555)"/><path class="g" d="M806.851,445.967a20.016,20.016,0,0,1-13.607-5.9,10.543,10.543,0,0,1-2.008-2.807c-1.749-3.571-.483-6.692,3.265-7.969a12.783,12.783,0,0,1,6.274-.385,20.04,20.04,0,0,1,10.611,5.062,10.366,10.366,0,0,1,3.135,4.765,4.92,4.92,0,0,1-2.461,6.044A10.263,10.263,0,0,1,806.851,445.967Z" transform="translate(-506.732 -175.904)"/><path class="h" d="M688.263,472.343a18.347,18.347,0,0,1,8.555,1.889,9.785,9.785,0,0,1,3.313,2.59,4.981,4.981,0,0,1-.345,7.106,12.01,12.01,0,0,1-6.834,3.277,19.723,19.723,0,0,1-10.964-1.063,11.373,11.373,0,0,1-4.011-2.6c-2.415-2.51-2.334-5.628.254-7.966,2.453-2.216,5.5-2.918,8.683-3.223C687.36,472.306,687.813,472.343,688.263,472.343Z" transform="translate(-424.611 -207.272)"/><path class="h" d="M93.594,558.487a62.568,62.568,0,0,1,21.365,4.278,20.041,20.041,0,0,1,4.108,2.084,7.912,7.912,0,0,1,1.473,1.224c1,1.121.783,2.121-.613,2.729a12.29,12.29,0,0,1-4.7.85,61.411,61.411,0,0,1-16.16-2.077,47.225,47.225,0,0,1-9.075-3.116,15.2,15.2,0,0,1-2.979-1.75c-.748-.6-1.651-1.214-1.405-2.325.221-1,1.191-1.275,2.07-1.493a12.128,12.128,0,0,1,2.265-.387C91.155,558.44,92.376,558.487,93.594,558.487Z" transform="translate(0 -269.197)"/><path class="h" d="M708.271,416.292a12.423,12.423,0,0,1-7.532-2.227c-3.944-2.8-3.921-7.26.024-10.059,4.142-2.939,11.185-2.943,15.313-.011,2.44,1.734,3.459,4.04,2.831,6.429a6.181,6.181,0,0,1-2.248,3.28A12.564,12.564,0,0,1,708.271,416.292Z" transform="translate(-440.114 -156.57)"/><path class="h" d="M341.069,593.4a31.969,31.969,0,0,1-9.727-1.129,10.06,10.06,0,0,1-2.969-1.345c-1.711-1.213-1.782-2.583-.222-3.956a9.9,9.9,0,0,1,3.014-1.679,31,31,0,0,1,9.221-1.834,39.4,39.4,0,0,1,11.12.628,14.48,14.48,0,0,1,3.991,1.372c2.61,1.434,2.65,3.324.108,4.94a14.922,14.922,0,0,1-4.254,1.764A37.23,37.23,0,0,1,341.069,593.4Z" transform="translate(-173.585 -287.065)"/><path class="h" d="M583.474,476.316a10.848,10.848,0,0,1,5.4,1.207,3.97,3.97,0,0,1,1.429,6.2,9.52,9.52,0,0,1-2.791,2.625A17.805,17.805,0,0,1,574.988,489a7.831,7.831,0,0,1-2.714-.951c-2.518-1.437-3.061-3.775-1.421-6.186a9.551,9.551,0,0,1,2.625-2.523A18.5,18.5,0,0,1,583.474,476.316Z" transform="translate(-348.189 -210.138)"/><path class="h" d="M420.916,548.792c-1.187-.123-2.53-.231-3.863-.413a7.047,7.047,0,0,1-1.657-.484c-2.369-.959-2.736-2.617-1-4.456a9.683,9.683,0,0,1,2.136-1.628,27.418,27.418,0,0,1,9.967-3.341,25.978,25.978,0,0,1,8.809-.067,6.946,6.946,0,0,1,2.694.97,2.092,2.092,0,0,1,.607,3.3,8.941,8.941,0,0,1-3.09,2.557,29.327,29.327,0,0,1-10.605,3.228C423.638,548.612,422.354,548.673,420.916,548.792Z" transform="translate(-235.61 -254.521)"/><path class="h" d="M729.42,331.756a8.954,8.954,0,0,1,5.221,1.664,5.658,5.658,0,0,1,1.227,8.566c-3.133,3.9-10.253,4.711-14.187,1.615a5.583,5.583,0,0,1-.9-8.332C722.864,332.794,725.635,331.791,729.42,331.756Z" transform="translate(-455.586 -106.215)"/><path class="h" d="M239.542,565.063a40.988,40.988,0,0,1-8.94-1.084,10.555,10.555,0,0,1-3.019-1.225c-1.72-1.1-1.724-2.435-.021-3.617a10.139,10.139,0,0,1,2.978-1.318,37.757,37.757,0,0,1,12.374-1.332,31.288,31.288,0,0,1,7.036.966,10.17,10.17,0,0,1,3.346,1.419c1.422,1.03,1.427,2.2.021,3.275a9.882,9.882,0,0,1-3.123,1.455A40.763,40.763,0,0,1,239.542,565.063Z" transform="translate(-101.163 -267.737)"/><path class="h" d="M620.347,423.446a9.821,9.821,0,0,1-3.038-.562,3.693,3.693,0,0,1-2.273-5.276,7.009,7.009,0,0,1,1.458-2.247,15.569,15.569,0,0,1,11.881-4.967,6.633,6.633,0,0,1,1.886.34c2.964.927,3.935,3.3,2.44,6.042a11.181,11.181,0,0,1-3.875,3.941A16.71,16.71,0,0,1,620.347,423.446Z" transform="translate(-380.342 -162.747)"/><path class="h" d="M499.835,476.017a11.445,11.445,0,0,1,4.185.492c2.082.806,2.609,2.4,1.4,4.3A8,8,0,0,1,503.278,483a22.436,22.436,0,0,1-14.866,4.208,6.673,6.673,0,0,1-2.594-.664,2.469,2.469,0,0,1-1.2-3.684,7.316,7.316,0,0,1,2.3-2.552A21.873,21.873,0,0,1,499.835,476.017Z" transform="translate(-286.586 -209.923)"/><path class="h" d="M739.719,260.6a9.608,9.608,0,0,1,1.645.183c2.52.656,4.485,2.025,5.075,4.7s-.565,4.8-2.638,6.379a8.582,8.582,0,0,1-9.236,1.153,5.768,5.768,0,0,1-2.065-9.3A8.791,8.791,0,0,1,739.719,260.6Z" transform="translate(-463.954 -55.064)"/><path class="h" d="M656.531,365.23a9.086,9.086,0,0,1-.963,0c-3.4-.366-4.911-2.911-3.6-6.063,1.746-4.2,7.846-7.475,12.255-6.587a3.9,3.9,0,0,1,3.222,5.152,6.206,6.206,0,0,1-.776,1.752A12.6,12.6,0,0,1,656.531,365.23Z" transform="translate(-406.835 -121.079)"/><path class="h" d="M741.4,184.962l2.7-.025c2.424.731,4.211,2.072,4.781,4.718a5.8,5.8,0,0,1-.148,2.835,8.006,8.006,0,0,1-8.556,5.636,5.865,5.865,0,0,1-4.789-7.987,7.778,7.778,0,0,1,4.386-4.585C740.3,185.318,740.859,185.157,741.4,184.962Z" transform="translate(-466.868 -0.674)"/><path class="h" d="M560.4,414.693c.192,0,.385-.01.577,0,3.136.185,4.185,2.157,2.563,4.833a9.311,9.311,0,0,1-1.7,2.076,19.785,19.785,0,0,1-10.731,5.177,6.649,6.649,0,0,1-2.477-.121c-2.094-.491-2.794-1.9-1.915-3.892a5.343,5.343,0,0,1,.658-1.168C550.707,417.391,555.177,415.321,560.4,414.693Z" transform="translate(-331.246 -165.836)"/><path class="h" d="M336.021,536.56a29.905,29.905,0,0,1-3.222-.247c-.848-.142-1.888-.3-2.134-1.357s.606-1.608,1.318-2.146a12.08,12.08,0,0,1,2.679-1.492A37.136,37.136,0,0,1,350,528.323a8.782,8.782,0,0,1,2.644.431c1.776.61,1.969,1.657.532,2.925a10.657,10.657,0,0,1-2.783,1.689A38,38,0,0,1,336.021,536.56Z" transform="translate(-176.166 -247.516)"/><path class="g" d="M419.706,488.982c-.958-.122-2.122.161-2.609-.881-.54-1.156.423-1.931,1.177-2.6a27.571,27.571,0,0,1,11.1-5.539,19.935,19.935,0,0,1,3.979-.672,4.223,4.223,0,0,1,1.89.289,1.155,1.155,0,0,1,.71,1.7,3.8,3.8,0,0,1-1.172,1.506A28.247,28.247,0,0,1,419.706,488.982Z" transform="translate(-238.216 -212.271)"/><path class="g" d="M481.159,438.8a10.907,10.907,0,0,1-1.691-.275,1.444,1.444,0,0,1-.978-1.972,5.107,5.107,0,0,1,1.448-2.232,21.23,21.23,0,0,1,11.6-5.93c1.139-.191,2.46-.28,3.129.868.7,1.2-.159,2.234-.945,3.073A20.883,20.883,0,0,1,481.159,438.8Z" transform="translate(-282.398 -175.606)"/><path class="g" d="M311.976,475.6a8.865,8.865,0,0,1-.915-.056c-.986-.175-1.293-.8-.733-1.661a5.935,5.935,0,0,1,1.3-1.41,36.563,36.563,0,0,1,15.388-7.149c.893-.185,2.149-.518,2.618.534.461,1.035-.636,1.712-1.322,2.336a26.569,26.569,0,0,1-6.131,3.952,34.1,34.1,0,0,1-8.639,3.184C312.973,475.444,312.4,475.53,311.976,475.6Z" transform="translate(-161.377 -202.095)"/><path class="g" d="M337.33,500.3c-1.421-.133-2.726.266-3.087-1.007-.29-1.022.67-1.746,1.423-2.312a28.165,28.165,0,0,1,14.459-5.64c.933-.09,2.1-.215,2.572.817.5,1.089-.494,1.783-1.209,2.348A28.444,28.444,0,0,1,337.33,500.3Z" transform="translate(-178.731 -220.896)"/><path class="g" d="M409.917,451.749c-.809-.113-1.6-.027-2.022-.721-.446-.727,0-1.363.406-1.942a6.691,6.691,0,0,1,1-1.162,21.672,21.672,0,0,1,10.845-5.463c.982-.176,2.036-.252,2.567.71.509.922-.187,1.744-.81,2.385A21.045,21.045,0,0,1,409.917,451.749Z" transform="translate(-231.582 -185.723)"/></g></g></svg>