<svg xmlns="http://www.w3.org/2000/svg" width="114.671" height="33.665" viewBox="0 0 114.671 33.665"><defs><style>.a{fill:#5e5f62;}.b{fill:#e17d00;}</style></defs><g transform="translate(-74.611 -550.284)"><g transform="translate(108.012 550.439)"><path class="a" d="M149.288,550.631h6.32v8.517h4.07l-1.448,6.074h-2.622v18.621h-6.32Z" transform="translate(-149.288 -550.631)"/><path class="a" d="M192.78,575.572a12,12,0,0,1,.395,7.748H175.941c0,3.361,2.764,5.19,6.121,5.19a16.706,16.706,0,0,0,7.454-1.727l3.314,3.6a18.236,18.236,0,0,1-10.768,3.854c-7.5,0-12.594-5.433-12.594-12.648,0-7.012,4.745-12.688,12.449-12.688C187.2,568.9,190.9,571.422,192.78,575.572Zm-16.592,3.8H187.5a3.8,3.8,0,0,0-.6-1.971,5.463,5.463,0,0,0-4.984-2.767C178.56,574.634,176.285,577,176.188,579.372Z" transform="translate(-160.443 -560.731)"/><path class="a" d="M248.134,573.559l-3.756,4.05a8.149,8.149,0,0,0-5.976-2.524,6.573,6.573,0,0,0,0,13.14,8.141,8.141,0,0,0,5.976-2.517l3.756,4.05a12.648,12.648,0,1,1,0-16.2Z" transform="translate(-191.555 -560.79)"/><path class="a" d="M301.457,570.8v13.039h-6.27V571.2c0-4.6-2.173-6.324-5.48-6.324-3.607,0-5.878,2.126-5.878,6.864v12.1h-6.269V550.631h6.269V561.72a8.537,8.537,0,0,1,6.864-2.916C297.806,558.8,301.457,563.643,301.457,570.8Z" transform="translate(-220.187 -550.631)"/></g><path class="b" d="M75.871,569.674h6.27v24.695h-6.27Z" transform="translate(-0.696 -10.717)"/><path class="b" d="M114.46,593.943l-.344-3.51a10.344,10.344,0,0,1-8.2,3.807c-7.012,0-12.05-5.629-12.05-12.648S98.9,568.9,105.915,568.9a10.381,10.381,0,0,1,8.2,3.854l.344-3.51h4.195v24.695Zm-1.579-12.351a6.376,6.376,0,1,0-12.742,0,6.374,6.374,0,1,0,12.742,0Z" transform="translate(-10.642 -10.292)"/><path class="b" d="M82.011,553.982a3.7,3.7,0,1,1-3.7-3.7A3.7,3.7,0,0,1,82.011,553.982Z"/></g></svg>