<svg xmlns="http://www.w3.org/2000/svg" width="484.483" height="313.822" viewBox="0 0 484.483 313.822"><defs><style>.a{fill:#ecbf43;}.b{fill:#c00320;}.c{fill:#fcfcfa;}.d{fill:#fff;}</style></defs><g transform="translate(-9.16 -21.83)"><path class="a" d="M136.065,276.992c-10.8.186-27.009-.32-42.664-5.051-25.273-7.639-40.877-26.459-53.241-48.185C23.7,194.83,14.24,163.279,9.608,130.544,7.1,112.816,15.386,98.022,28.377,86.011c20.788-19.224,46.574-28.562,73.055-36.27,36.73-10.69,74.464-16.185,112.407-20.085q35.847-3.683,71.883-5.479c36.972-1.894,74-3.325,111.009-1.506,22.957,1.129,45.8,3.911,67.355,12.8,22.183,9.148,30.789,22.433,29.415,46.4-1.24,21.655-4.629,43.024-11.444,63.689-13.283,40.28-39.782,67.2-80.384,80.86a1080.8,1080.8,0,0,1-193.667,45.437A492.19,492.19,0,0,1,136.065,276.992Zm136.447-220.9c-54.941,1.453-116.712.417-177.191,17.046-17.444,4.8-34.257,9.944-49.514,19.311-13.814,8.481-24.634,20.084-24.7,37.393-.115,30.534,6.422,59.729,22.213,86.178,12.463,20.877,30.218,34.319,55.29,37.493,23.976,3.035,47.931,2.513,71.805.57,79.112-6.442,156.949-20.575,233.775-40.334,24.033-6.182,42.85-19.644,55.724-41.1,10.221-17.03,14.773-35.818,18.657-55.061,4.753-23.549-7.494-35.441-23.5-42.734-12.73-5.8-26.229-8.974-39.949-11.2C370.108,56.37,324.661,56.8,272.512,56.092Z" transform="translate(0)"/><path class="b" d="M269.426,47.242c52.149.705,97.6.278,142.609,7.571,13.72,2.222,27.219,5.4,39.949,11.2,16.009,7.293,28.256,19.185,23.5,42.734-3.884,19.243-8.436,38.031-18.657,55.061-12.875,21.452-31.691,34.915-55.724,41.1-76.826,19.759-154.664,33.892-233.775,40.334-23.874,1.943-47.829,2.465-71.805-.57-25.073-3.174-42.827-16.616-55.29-37.493-15.791-26.449-22.327-55.643-22.213-86.178.065-17.309,10.885-28.912,24.7-37.393,15.257-9.368,32.07-14.514,49.514-19.311C152.714,47.659,214.485,48.7,269.426,47.242ZM85.788,98.862l2.177.677c0,3.741-.026,7.482.005,11.223.155,19.22-3.47,38.372-1.37,57.6.764,7,1.943,14.742,9.9,17.534,7.126,2.5,11.973-2.357,16.445-7.076a28.126,28.126,0,0,0,2.767-3.333,214.52,214.52,0,0,0,33.226-77.657c1.693-7.952,3.063-18.559-2.08-27.758-.821.884-1.609,1.356-1.807,2.008-1.166,3.848-2.177,7.743-3.276,11.613-7.65,26.94-15.745,53.713-30.42,77.91-2.942,4.851-5.808,9.86-11.437,13.188-2.506-9.666-1.8-18.884-1.49-28.081.608-17.836,2.351-35.693-.728-53.477-.64-3.7-1.062-7.335-5.841-8.567a11.062,11.062,0,0,0-11.125,2.81,49.888,49.888,0,0,0-10.665,14.641C58.615,124.779,50.63,148.72,43.89,173.142c-1.259,4.567-1.541,8.3,3.595,9.659s8-3.1,8.545-6.64c2.258-14.673,7.771-28.308,12.677-42.1C73.087,121.749,77.635,109.336,85.788,98.862Zm158.634,79.6c-9.028,7.376-8.537,14.877.671,21.284,16.179,11.258,45.58,3.875,54.708-13.81,3.654-7.08,2.621-13.938-1.6-20.449-5.9-9.086-14.323-15.647-22.511-22.464-10.3-8.578-9.473-14.534,2.934-19.793,3.82-1.619,7.565-3.075,12.395-1.878,4.755,1.178,10.367,1.174,14.633-3,1.772-1.734,3-3.492,2.448-6.054a4.8,4.8,0,0,0-5-3.96c-13.778-.321-27.3.518-38.345,10.309-10.6,9.4-11,18.95-.866,28.871,6.6,6.46,13.933,12.174,20.444,18.713,8.222,8.258,7.169,15.3-2.505,21.918a33.707,33.707,0,0,1-17.013,5.823C251.017,194.943,246.928,191.993,244.423,178.459Zm11.719-23.049c-11.042,6.5-21.338,12.358-34.351,13.906-3.039.363-6.426.415-8.8-1.518-2.457-2-3.046-5.544-2.748-8.7a1.927,1.927,0,0,1,.4-1.177,2.087,2.087,0,0,1,1.42-.449c6.427-.446,13.748-3.426,19.523-6.187a49.051,49.051,0,0,0,16.84-13.647c3.326-4.13,5.314-8.907,2.167-14.366-3.28-5.691-9.708-7.887-14.564-7.705-23,.859-41.987,27.76-36.633,50.509,2.173,9.236,8.6,15.372,16.968,16.2C229.182,183.534,250.681,169.761,256.142,155.41Z" transform="translate(3.086 8.85)"/><path class="c" d="M258.658,161.729l-.214.15a16.078,16.078,0,0,1-5.293,2.779c-7.215,1.708-8.231-7.745-6.855-12.629,2.763-9.8,5.509-19.613,8.645-29.3,1.568-4.846,3.232-9.662,5.043-14.423,1.429-3.758,2.165-9.768,5.958-11.776a18.341,18.341,0,0,1,5.524-1.568c13.595-2.359,27.473-4.723,41.116-2.667a24.687,24.687,0,0,0,5.45.492,6.655,6.655,0,0,0,4.821-2.262,2,2,0,0,0,.487-1.8,2.342,2.342,0,0,0-.844-1c-6.833-5.428-16.038-6.875-24.762-6.7-7.947.158-15.819,2.358-23.78,3.212-3.216.345-2.976-.7-1.723-3.271,1.019-2.091,1.839-4.275,2.934-6.33,1.764-3.307,3.737-6.5,5.514-9.8,2.377-4.409,5.613-9.325-.523-12.635-5.684-3.067-8.1,2.013-10.294,6.174-4.774,9.035-9.064,18.579-14.772,27.063a2.27,2.27,0,0,1-1.867,1.239c-3.8.767-7.664.886-11.466,1.567-4.056.727-7.939,2.173-11.948,3.094-3.607.829-6.048,2.814-4.985,6.631,1.042,3.736,4.088,4.186,7.689,3.35,5.732-1.328,11.269-3.936,18.528-3.372-7.809,13.851-11.467,28.333-15.4,42.74a72.267,72.267,0,0,0-2.772,23.107c.417,7.606,3.93,12.509,12.1,12.865,9.214.4,18.076-7.443,23.976-13.79a21.273,21.273,0,0,0,5.393-9.48c.111-.481.085-1.155-.4-1.263a.935.935,0,0,0-.568.116,40.829,40.829,0,0,0-6.354,3.666Z" transform="translate(75.023 10.249)"/><path class="c" d="M319.4,86.881c-11.273-5.276-20.313,3.171-27.479,10.837-1.157-2.423-.7-5.547-1.8-8.121-.853-2-2.2-4.035-4.308-4.577-2.163-.558-4.484.735-5.714,2.6-1.955,2.964-1.342,6.251-1.572,9.557a80.606,80.606,0,0,1-1.58,10.89c-1.507,7.205-3.763,14.222-5.91,21.254Q265.5,147.483,259.2,165.4a9.045,9.045,0,0,0-.74,3.67c.5,6.082,6.031-1.045,7.189-2.875a100.629,100.629,0,0,0,4.982-9.842c2.772-5.678,5.492-11.382,8.229-17.077,9.47-19.7,18.314-39.834,41.581-47.724C324.186,90.286,321.285,87.762,319.4,86.881Z" transform="translate(86.821 21.962)"/><path class="c" d="M79.305,92.966c-8.153,10.473-12.7,22.887-17.081,35.2-4.905,13.789-10.418,27.424-12.677,42.1-.545,3.539-3.4,8-8.545,6.64s-4.854-5.092-3.595-9.659c6.74-24.421,14.725-48.363,26.182-71.029A49.888,49.888,0,0,1,74.255,81.576a11.062,11.062,0,0,1,11.125-2.81c4.778,1.232,5.2,4.87,5.841,8.567,3.079,17.784,1.336,35.64.728,53.477-.314,9.2-1.017,18.415,1.49,28.081,5.629-3.328,8.5-8.336,11.437-13.187,14.675-24.2,22.77-50.97,30.42-77.91,1.1-3.87,2.11-7.765,3.276-11.613.2-.651.986-1.123,1.807-2.008,5.144,9.2,3.774,19.806,2.08,27.758a214.52,214.52,0,0,1-33.226,77.657,28.124,28.124,0,0,1-2.767,3.333c-4.472,4.719-9.319,9.574-16.445,7.076-7.96-2.792-9.139-10.535-9.9-17.534-2.1-19.224,1.525-38.376,1.37-57.6-.031-3.741-.005-7.482-.005-11.223Z" transform="translate(9.569 14.747)"/><path class="c" d="M187.622,162.693c2.505,13.534,6.594,16.484,20.394,15.507a33.707,33.707,0,0,0,17.013-5.823c9.674-6.616,10.727-13.659,2.505-21.918-6.511-6.539-13.847-12.253-20.444-18.713-10.131-9.921-9.732-19.475.866-28.871C219,93.084,232.522,92.245,246.3,92.566a4.8,4.8,0,0,1,5,3.96c.551,2.562-.677,4.32-2.448,6.054-4.266,4.177-9.878,4.181-14.633,3-4.83-1.2-8.575.259-12.395,1.878-12.407,5.258-13.237,11.215-2.934,19.793,8.188,6.817,16.615,13.378,22.511,22.464,4.225,6.511,5.258,13.37,1.6,20.449-9.128,17.685-38.528,25.069-54.708,13.81C179.084,177.569,178.594,170.069,187.622,162.693Z" transform="translate(59.887 24.617)"/><path class="c" d="M116.153,150.211a2.175,2.175,0,0,0,.673-.245c3.23-1.646,6.09-5.068,8.845-7.472a62.475,62.475,0,0,0,9.3-9.851c7.2-9.759,14.416-19.511,21.775-29.152,2.443-3.2,5.262-6.927,10.008-4.879,5.366,2.316,3.79,7.14,2.927,11.335-1.95,9.488-5.045,18.691-7.19,28.132a92.4,92.4,0,0,0-2.214,14.013,50.5,50.5,0,0,0-.076,7.269c.07.93.721,4.456-1.239,2.542a23.14,23.14,0,0,1-6.206-11.974,36.94,36.94,0,0,1-.426-11.082c.309-3.038,1.568-6.137.565-9.193-5.31,6.9-10.639,13.818-16.81,19.957-6.421,6.388-27.729,25.391-31.627,7.2a27.353,27.353,0,0,1,.987-13.716c3.457-11.315,6.477-23.165,11.41-33.939a23.449,23.449,0,0,1,4.215-6.762c1.964-2.017,5.614-4.219,8.277-2.461,2.808,1.855,2.292,5.523,1.084,8.14-3.02,6.549-5.932,13.15-8.58,19.859-2.479,6.286-5.683,13.217-6.853,19.868a3.575,3.575,0,0,0-.055,1.448,1.22,1.22,0,0,0,.963.973A.984.984,0,0,0,116.153,150.211Z" transform="translate(33.024 26.537)"/><path class="c" d="M346.256,101.752c-.889-7.207-4.455-12.337-11.908-14.259a17.6,17.6,0,0,0-9.608.19c-2.337.712-7.4,2.451-8.555,4.819,3.368.7,6.793-1.087,10.224-.86a9.331,9.331,0,0,1,7.035,4.158c2.008,3.043,1.362,6.052,1.362,9.426,0,8.692-3.7,17.157-8.463,24.274a54.791,54.791,0,0,1-9.048,10.5,53.851,53.851,0,0,1-10.943,7.854,7.744,7.744,0,0,1-5.792.635,7.657,7.657,0,0,1-3.069-2.091c-5.308-5.661-1.993-12.83,1.034-18.745a35.807,35.807,0,0,1,14.061-15.086c2.981-1.656,6.337-2.508,9.438-3.926,3.082-1.412,12.739-9.559,5.769-12.441a6.914,6.914,0,0,0-3.278-.276c-12.965,1.2-23.773,9.422-31.476,19.488-7.084,9.259-15.225,22.4-10.488,34.356,1.834,4.627,5.335,9.606,10.333,11.08,6.073,1.789,13.339-.572,18.718-3.387a72.433,72.433,0,0,0,16.9-12.337c8.758-8.761,15.577-20.284,17.506-32.635A38.823,38.823,0,0,0,346.256,101.752Z" transform="translate(94.726 22.668)"/><path class="c" d="M209.526,137.764c-5.461,14.351-26.96,28.124-39.78,26.86-8.366-.824-14.795-6.96-16.968-16.2-5.354-22.749,13.631-49.65,36.633-50.509,4.857-.182,11.284,2.014,14.564,7.705,3.147,5.459,1.16,10.236-2.167,14.366a49.085,49.085,0,0,1-16.773,13.615,60.448,60.448,0,0,1-20.053,5.659,3.071,3.071,0,0,0-1.354.291,2.534,2.534,0,0,0-1.011,1.842,8.9,8.9,0,0,0,3.33,8.429c3.883,2.934,9.319,2.148,14.1,1.223C191.152,148.9,199.91,143.42,209.526,137.764Z" transform="translate(49.701 26.497)"/><path class="b" d="M180.794,108.379c1.645-.41,4.874-.957,5.425.709a1.619,1.619,0,0,1-.262,1.207,21.061,21.061,0,0,1-2.513,4,17.136,17.136,0,0,1-3.228,2.837,36.088,36.088,0,0,1-8.66,4.6c-2.653.942-7.815,2.966-6.825-.909,1.479-5.8,10.24-10.75,15.419-12.273C180.316,108.5,180.535,108.444,180.794,108.379Z" transform="translate(54.139 29.995)"/><g transform="translate(445.406 101.56)"><path class="d" d="M349.108,88.941a8.2,8.2,0,1,1-8.169-7.976A8.012,8.012,0,0,1,349.108,88.941Zm-14.346,0a6.179,6.179,0,0,0,6.225,6.371,6.108,6.108,0,0,0,6.079-6.323,6.157,6.157,0,1,0-12.3-.047Zm4.91,4.182h-1.847V85.147a16.189,16.189,0,0,1,3.065-.243,4.955,4.955,0,0,1,2.771.584,2.2,2.2,0,0,1,.779,1.75,2.042,2.042,0,0,1-1.654,1.848v.1a2.355,2.355,0,0,1,1.46,1.946,6.06,6.06,0,0,0,.584,1.994h-2a6.874,6.874,0,0,1-.632-1.946c-.146-.875-.631-1.265-1.653-1.265h-.876Zm.05-4.523h.875c1.022,0,1.848-.341,1.848-1.168,0-.729-.534-1.215-1.7-1.215a4.432,4.432,0,0,0-1.021.1Z" transform="translate(-332.718 -80.965)"/></g><g transform="translate(75.014 298.347)"><path d="M81.184,262.182a22.89,22.89,0,0,1-9.055,1.657C63.333,263.839,58,258.3,58,249.4a21.715,21.715,0,0,1,7.451-16.816A19.743,19.743,0,0,1,78.6,227.879c3.88,0,6.623.982,7.553,1.707l-1.4,3.466a14.356,14.356,0,0,0-6.88-1.448,14.723,14.723,0,0,0-9.987,3.933,18.318,18.318,0,0,0-5.33,13.245c0,6.259,2.846,11.382,10.608,11.382a17.559,17.559,0,0,0,7.449-1.5Z" transform="translate(-58.003 -226.585)"/><path d="M96.221,259.334a17.283,17.283,0,0,1-8.28,1.966c-6.623,0-9.52-4.5-9.52-10.039,0-7.553,5.589-16.09,13.659-16.09,4.761,0,7.347,2.845,7.347,6.416,0,6.572-7.4,8.33-16.659,8.175a10.379,10.379,0,0,0,.518,4.759,5.693,5.693,0,0,0,5.587,3.364,13.97,13.97,0,0,0,6.727-1.759Zm-4.761-20.8c-4.088,0-7.14,3.984-8.175,7.917,6.725.051,12-.828,12-4.708C95.289,239.672,93.737,238.533,91.46,238.533Z" transform="translate(-50.892 -224.045)"/><path d="M95.615,260.782l3.364-17.747c.569-2.794.879-5.226,1.189-7.3H104l-.62,4.916h.1a10.949,10.949,0,0,1,9.263-5.485c3,0,6.364,1.708,6.364,6.985a24.02,24.02,0,0,1-.467,4.035l-2.794,14.591h-4.294l2.741-14.436a16.3,16.3,0,0,0,.364-3.208c0-2.536-.984-4.4-3.933-4.4-3.054,0-7.4,3.674-8.537,9.882l-2.277,12.16Z" transform="translate(-44.904 -224.045)"/><path d="M126.964,230.6l-1.293,6.725h6L131,240.693h-6l-2.327,12.157a22.093,22.093,0,0,0-.467,4.038,2.11,2.11,0,0,0,2.381,2.378,11.835,11.835,0,0,0,2.018-.155l-.208,3.364a10.008,10.008,0,0,1-3.311.465c-3.828,0-5.277-2.328-5.277-4.865a23.371,23.371,0,0,1,.516-4.708l2.484-12.675h-3.62l.671-3.364h3.57l1.087-5.64Z" transform="translate(-37.391 -225.636)"/><path d="M128.123,260.782l3.054-16.144c.62-3.259,1.034-6.57,1.293-8.9h3.777c-.206,1.758-.413,3.518-.673,5.432h.156c1.6-3.414,4.294-6,7.657-6a8.362,8.362,0,0,1,1.191.1l-.828,4.243a6.015,6.015,0,0,0-1.139-.105c-3.725,0-7.037,4.5-8.122,10.349l-2.07,11.021Z" transform="translate(-33.582 -224.045)"/><path d="M164.012,245.622c0,7.709-5.483,15.729-13.867,15.729-6.259,0-9.779-4.656-9.779-10.3,0-8.226,5.744-15.884,13.867-15.884C161.012,235.17,164.012,240.292,164.012,245.622Zm-19.2,5.277c0,4.088,2.225,7.038,5.9,7.038,5.071,0,8.9-6.52,8.9-12.366,0-2.9-1.346-6.985-5.848-6.985C148.386,238.585,144.765,245.155,144.817,250.9Z" transform="translate(-29.318 -224.045)"/><path d="M191.1,262.182a22.89,22.89,0,0,1-9.055,1.657c-8.8,0-14.125-5.537-14.125-14.436a21.718,21.718,0,0,1,7.449-16.816,19.746,19.746,0,0,1,13.143-4.708c3.88,0,6.623.982,7.554,1.707l-1.4,3.466a14.363,14.363,0,0,0-6.882-1.448,14.725,14.725,0,0,0-9.987,3.933,18.317,18.317,0,0,0-5.328,13.245c0,6.259,2.845,11.382,10.607,11.382a17.559,17.559,0,0,0,7.449-1.5Z" transform="translate(-19.72 -226.585)"/><path d="M212.063,245.622c0,7.709-5.483,15.729-13.867,15.729-6.26,0-9.779-4.656-9.779-10.3,0-8.226,5.744-15.884,13.867-15.884C209.062,235.17,212.063,240.292,212.063,245.622Zm-19.2,5.277c0,4.088,2.225,7.038,5.9,7.038,5.071,0,8.9-6.52,8.9-12.366,0-2.9-1.346-6.985-5.847-6.985C196.437,238.585,192.816,245.155,192.868,250.9Z" transform="translate(-12.583 -224.045)"/><path d="M208.183,260.782l3.364-17.747c.518-2.794.879-5.226,1.137-7.3h3.778l-.673,4.708h.155c2.328-3.466,5.485-5.277,8.8-5.277,3.829,0,5.64,2.432,5.848,5.587,2.225-3.621,5.432-5.536,9.21-5.587,2.9,0,6.052,1.863,6.052,6.572a25.343,25.343,0,0,1-.414,4.242l-2.794,14.8h-4.19l2.69-14.436a16.489,16.489,0,0,0,.361-3.26c0-2.639-.982-4.346-3.775-4.346-3.105,0-6.779,3.621-7.813,9.209l-2.432,12.833h-4.139l2.794-14.694a16.05,16.05,0,0,0,.31-3.054c0-2.121-.568-4.294-3.724-4.294s-7.038,4.139-8.02,9.469l-2.33,12.573Z" transform="translate(-5.699 -224.045)"/><path d="M257.186,259.334a17.283,17.283,0,0,1-8.28,1.966c-6.623,0-9.519-4.5-9.519-10.039,0-7.553,5.587-16.09,13.659-16.09,4.759,0,7.347,2.845,7.347,6.416,0,6.572-7.4,8.33-16.661,8.175a10.379,10.379,0,0,0,.518,4.759,5.7,5.7,0,0,0,5.589,3.364,13.964,13.964,0,0,0,6.725-1.759Zm-4.759-20.8c-4.089,0-7.141,3.984-8.176,7.917,6.725.051,12-.828,12-4.708C256.254,239.672,254.7,238.533,252.426,238.533Z" transform="translate(5.169 -224.045)"/><path d="M256.58,260.782l3.054-16.144c.62-3.259,1.034-6.57,1.293-8.9H264.7c-.206,1.758-.413,3.518-.673,5.432h.156c1.6-3.414,4.294-6,7.657-6a8.362,8.362,0,0,1,1.191.1l-.828,4.243a6.015,6.015,0,0,0-1.139-.105c-3.725,0-7.037,4.5-8.122,10.349l-2.07,11.021Z" transform="translate(11.157 -224.045)"/><path d="M285.69,259.786a17.3,17.3,0,0,1-7.243,1.5c-6.468,0-9.625-4.347-9.625-9.677,0-8.537,6.314-16.4,15.316-16.4a12.752,12.752,0,0,1,5.226,1.088l-1.242,3.414a9.727,9.727,0,0,0-4.243-.932c-6.52,0-10.607,6.416-10.607,12.314,0,4.037,2.121,6.675,6.21,6.675a13.19,13.19,0,0,0,5.794-1.4Z" transform="translate(15.421 -224.032)"/><path d="M284.789,263.187l4.812-25.043h4.3l-4.812,25.043Zm5.589-32.028a2.85,2.85,0,0,1,2.846-2.9,2.486,2.486,0,0,1,2.535,2.69,2.829,2.829,0,0,1-2.9,2.9A2.477,2.477,0,0,1,290.378,231.159Z" transform="translate(20.982 -226.451)"/><path d="M310.146,260.782a64.734,64.734,0,0,1,.569-6.468h-.1c-2.741,5.175-6.156,7.037-9.728,7.037-4.4,0-7.192-3.518-7.192-8.278,0-8.692,6.416-17.9,17.335-17.9a23.356,23.356,0,0,1,6.725.983l-2.535,13.039a57.214,57.214,0,0,0-1.087,11.59Zm2.795-21.834a11.555,11.555,0,0,0-3-.363c-6.468,0-11.745,6.778-11.8,13.711,0,2.794.983,5.537,4.294,5.537,3.57,0,7.813-4.658,9.055-11.332Z" transform="translate(24.082 -224.045)"/><path d="M313.65,263.656l6.985-36.737h4.294l-7.037,36.737Z" transform="translate(31.033 -226.919)"/></g></g></svg>