<svg xmlns="http://www.w3.org/2000/svg" width="833.718" height="574.369" viewBox="0 0 833.718 574.369"><defs><style>.a{fill:#c00320;opacity:0.105;}.b{fill:#ecbf43;opacity:0.241;}</style></defs><g transform="translate(-975.639 -634.472)"><path class="a" d="M173.554,352.368c-13.988.241-34.987-.414-55.267-6.543-32.739-9.9-52.952-34.275-68.968-62.419C27.995,245.935,15.741,205.064,9.74,162.659c-3.25-22.966,7.486-42.129,24.314-57.689,26.929-24.9,60.332-37,94.636-46.984C176.27,44.137,225.151,37.02,274.3,31.967q46.437-4.771,93.118-7.1c47.894-2.454,95.864-4.307,143.8-1.951,29.739,1.462,59.333,5.067,87.252,16.582,28.736,11.85,39.885,29.059,38.1,60.1-1.607,28.052-6,55.733-14.825,82.5-17.207,52.179-51.534,87.051-104.13,104.747-81.816,27.528-165.493,46.768-250.877,58.859A637.579,637.579,0,0,1,173.554,352.368ZM350.308,66.213c-71.171,1.883-151.19.54-229.534,22.082-22.6,6.214-44.377,12.881-64.141,25.016-17.9,10.986-31.912,26.017-32,48.439-.148,39.555,8.319,77.373,28.775,111.635,16.145,27.044,39.144,44.457,71.623,48.569,31.059,3.932,62.09,3.256,93.017.739,102.482-8.345,203.313-26.653,302.834-52.249,31.133-8.008,55.508-25.447,72.186-53.237,13.241-22.061,19.137-46.4,24.169-71.326,6.157-30.506-9.707-45.91-30.446-55.357C570.3,83.01,552.818,78.9,535.044,76.02,476.734,66.573,417.862,67.127,350.308,66.213Z" transform="matrix(0.995, 0.105, -0.105, 0.995, 1003.366, 791.804)"/><path class="b" d="M173.554,352.368c-13.988.241-34.987-.414-55.267-6.543-32.739-9.9-52.952-34.275-68.968-62.419C27.995,245.935,15.741,205.064,9.74,162.659c-3.25-22.966,7.486-42.129,24.314-57.689,26.929-24.9,60.332-37,94.636-46.984C176.27,44.137,225.151,37.02,274.3,31.967q46.437-4.771,93.118-7.1c47.894-2.454,95.864-4.307,143.8-1.951,29.739,1.462,59.333,5.067,87.252,16.582,28.736,11.85,39.885,29.059,38.1,60.1-1.607,28.052-6,55.733-14.825,82.5-17.207,52.179-51.534,87.051-104.13,104.747-81.816,27.528-165.493,46.768-250.877,58.859A637.579,637.579,0,0,1,173.554,352.368ZM350.308,66.213c-71.171,1.883-151.19.54-229.534,22.082-22.6,6.214-44.377,12.881-64.141,25.016-17.9,10.986-31.912,26.017-32,48.439-.148,39.555,8.319,77.373,28.775,111.635,16.145,27.044,39.144,44.457,71.623,48.569,31.059,3.932,62.09,3.256,93.017.739,102.482-8.345,203.313-26.653,302.834-52.249,31.133-8.008,55.508-25.447,72.186-53.237,13.241-22.061,19.137-46.4,24.169-71.326,6.157-30.506-9.707-45.91-30.446-55.357C570.3,83.01,552.818,78.9,535.044,76.02,476.734,66.573,417.862,67.127,350.308,66.213Z" transform="matrix(0.995, 0.105, -0.105, 0.995, 1178.365, 611.804)"/></g></svg>