<svg xmlns="http://www.w3.org/2000/svg" width="1572.151" height="789.86" viewBox="0 0 1572.151 789.86"><defs><style>.a{opacity:0.05;}.b{fill:#fefffe;}.c{fill:#fcfdfc;}.d{fill:#039948;}.e{fill:#79b834;}</style></defs><g class="a"><path class="b" d="M1625.436,920.752c27.047.1,37.479-14.092,29.845-37.176a90.3,90.3,0,0,0-14.29-26.458q-45.331-59.248-115.786-83.935c-10.238-3.564-20.921-5.837-31.906-5.226-20.772,1.16-30.048,13.894-24.659,33.862a72.358,72.358,0,0,0,4.547,11.911,119.055,119.055,0,0,0,16.371,25.28,253.161,253.161,0,0,0,98.149,72.281C1600.6,916.695,1614.044,920.317,1625.436,920.752ZM1315.072,666.918c-12.243-.167-24.028,1.307-34.759,7.62-13.345,7.85-18.62,20.434-15.012,35.476,2.7,11.283,8.87,20.626,16.869,28.634,26.626,26.659,58.994,40.475,96.6,41.482,11.227.3,22.377-1.353,32.508-7.027,14.8-8.29,20.393-22.118,15.477-38.359-3.1-10.251-8.883-18.908-16.324-26.379C1384.13,681.955,1352.129,668.516,1315.072,666.918Zm62.835-17.636c11.087.077,21.681-1.715,31.381-7.152,13.985-7.842,19.238-21.038,14.825-36.4-3.315-11.545-10.245-20.758-18.883-28.7-18.147-16.689-39.6-26.546-63.917-30.49-12.828-2.081-25.44-1.885-37.792,2.32-22.577,7.688-30.2,26.491-19.668,48a63.527,63.527,0,0,0,12.1,16.906C1318.552,636.515,1346.24,647.526,1377.907,649.282Zm-219.658-30.065c-2.706,0-5.435-.222-8.118.035-19.145,1.837-37.524,6.071-52.3,19.416-15.589,14.08-16.078,32.864-1.532,47.982,6.806,7.073,15.11,12.023,24.157,15.683,21.368,8.65,43.569,10.311,66.041,6.4,15.387-2.675,29.877-8.1,41.162-19.739,12.653-13.05,13.4-28.564,2.079-42.8-5.4-6.792-12.3-11.707-19.958-15.6C1193.6,622.367,1176.271,619.124,1158.249,619.217ZM133.931,765.094c-7.337,0-14.688-.282-22,.1a73.057,73.057,0,0,0-13.645,2.334c-5.292,1.31-11.135,2.978-12.468,8.989-1.483,6.692,3.957,10.411,8.463,14.006,5.458,4.355,11.662,7.533,17.946,10.539,17.5,8.365,35.907,14.121,54.664,18.769,31.952,7.92,64.272,13.239,97.338,12.512,9.684-.213,19.362-1.207,28.323-5.117,8.409-3.668,9.689-9.687,3.691-16.441a47.668,47.668,0,0,0-8.871-7.371,120.728,120.728,0,0,0-24.745-12.553A376.84,376.84,0,0,0,133.931,765.094Zm1051.458-178.1c18.972.29,35.929-3.918,50.521-15.578,6.5-5.193,11.386-11.574,13.538-19.758,3.783-14.392-2.355-28.284-17.052-38.726-24.861-17.665-67.286-17.636-92.233.064-23.764,16.86-23.9,43.737-.145,60.587C1153.747,583.32,1169.313,587.228,1185.388,586.991ZM579,867.763a224.282,224.282,0,0,0,61.936-7.456c9-2.376,17.719-5.6,25.623-10.625,15.311-9.737,15.069-21.118-.65-29.757-7.517-4.13-15.694-6.477-24.042-8.267-22.128-4.743-44.56-5.386-66.98-3.783-18.9,1.353-37.694,4.032-55.54,11.046-6.5,2.555-12.852,5.439-18.156,10.111-9.4,8.271-8.973,16.52,1.336,23.828,5.4,3.832,11.538,6.185,17.882,8.1C539.137,866.62,558.358,867.979,579,867.763ZM987.387,625.88c-21.68.7-42,5.925-60.2,18.19a57.531,57.531,0,0,0-15.814,15.194c-9.877,14.522-6.609,28.6,8.558,37.262a47.168,47.168,0,0,0,16.344,5.729c27.1,4.116,52.249-1.353,75.417-15.933A57.331,57.331,0,0,0,1028.5,670.51c9.862-14.214,6.506-28.985-8.607-37.36C1009.836,627.575,998.795,625.858,987.387,625.88ZM686.348,795.095c8.663-.714,16.393-1.083,24.052-2.031,22.4-2.774,43.937-8.545,63.881-19.445,7.188-3.93,13.794-8.685,18.61-15.4,5.485-7.647,4.142-14.6-3.654-19.859-4.88-3.292-10.466-4.78-16.227-5.844-17.724-3.272-35.44-2.362-53.057.406-21.1,3.317-41.485,9.046-60.037,20.124a58.333,58.333,0,0,0-12.864,9.806c-10.434,11.076-8.223,21.065,6.045,26.84a42.449,42.449,0,0,0,9.982,2.915C671.106,793.707,679.2,794.357,686.348,795.095Zm533.231-413.986c-22.8.213-39.489,6.25-52.038,21.163-13.638,16.209-11.194,37.108,5.427,50.189,23.693,18.645,66.58,13.761,85.452-9.729,13.841-17.226,10.761-38.975-7.393-51.6C1240.486,383.805,1228.668,380.784,1219.579,381.109Zm-815.9,432.385c21.729-.941,43.309-2.2,64.162-8.795,6.645-2.1,13.217-4.472,18.81-8.767,8.468-6.5,8.44-13.521-.127-19.725-6.03-4.367-13.057-6.584-20.156-8.548-13.865-3.841-28.113-5.2-42.379-5.82-25.21-1.092-50.177.869-74.53,8.025-6.313,1.856-12.476,4.15-17.936,7.94-10.258,7.12-10.234,15.138.125,21.786,5.579,3.58,11.823,5.671,18.183,7.376C367.5,811.7,385.616,812.726,403.683,813.494Zm612.135-220.612a100.65,100.65,0,0,0,51.066-16.448c9.5-6.2,17.824-13.638,23.338-23.735,9-16.5,3.161-30.81-14.695-36.391a39.945,39.945,0,0,0-11.361-2.048c-28.2-.421-52.014,9.7-71.56,29.92a42.2,42.2,0,0,0-8.784,13.536c-5.811,14.3-.677,26.311,13.694,31.777A59.16,59.16,0,0,0,1015.818,592.883ZM854.652,625.374c-28.617.481-54.676,8.814-77.794,25.837-5.61,4.13-10.654,9-13.858,15.372-4.814,9.574-2.244,17.429,7.231,22.193a40.181,40.181,0,0,0,15.623,4c32.793,2.068,62.736-6.208,89.542-25.346a48.174,48.174,0,0,0,12.9-13.195c7.276-11.42,4.1-21.043-8.436-25.9C871.717,625.188,863.194,625.409,854.652,625.374ZM1231.219,260.6c-18.4-.064-32.61,5.866-43.48,18.774-16.3,19.361-10.614,45.579,12.437,56,19.714,8.909,38.639,6.007,55.629-6.942,12.487-9.517,19.445-22.318,15.892-38.422s-15.39-24.35-30.568-28.3C1237.443,260.74,1233.482,260.83,1231.219,260.6ZM1074.192,493.2c25.726-2,46.668-12.673,61.06-34.633a37.4,37.4,0,0,0,4.677-10.553c4.2-15.469-3.675-27.86-19.406-31.034-26.555-5.354-63.3,14.395-73.816,39.673-7.9,18.984,1.19,34.317,21.687,36.52A54.714,54.714,0,0,0,1074.192,493.2ZM950.486,521.549c-31.489,3.786-58.411,16.253-78.459,41.6a32.2,32.2,0,0,0-3.966,7.033c-5.291,12.014-1.077,20.487,11.535,23.442a40.05,40.05,0,0,0,14.922.732c24.888-3.51,46.18-14.4,64.638-31.183a56.078,56.078,0,0,0,10.243-12.5c9.766-16.116,3.451-27.994-15.44-29.109C952.806,521.49,951.644,521.549,950.486,521.549ZM533.049,763.606c31.757-1.119,59.8-7.376,86.568-19.226a64.182,64.182,0,0,0,16.766-10.173c8.656-7.634,7.493-13.941-3.2-17.616A52.9,52.9,0,0,0,617.252,714c-32.139-.83-62.816,5.757-92.388,18.032a72.771,72.771,0,0,0-16.137,8.99c-4.286,3.241-9.418,6.536-7.937,12.927s7.742,7.315,12.852,8.17C520.828,763.32,528.221,763.281,533.049,763.606Zm130.307-74.28c33.731-3.922,64.331-15.524,90.774-37.292a22.891,22.891,0,0,0,7.061-9.073c1.935-4.892.538-8.307-4.276-10.246a25.445,25.445,0,0,0-11.386-1.741,120.084,120.084,0,0,0-23.966,4.05c-24.4,6.855-47.532,16.373-66.834,33.361-4.545,4-10.343,8.668-7.09,15.633C650.573,690.3,657.583,688.591,663.356,689.326Zm104.035-81.4c29.073-4.208,54.867-16.744,75.687-38.955,4.74-5.057,9.891-11.3,5.695-18.51-4.029-6.916-11.987-6.382-18.848-5.231a127.875,127.875,0,0,0-69.886,35.718c-3.852,3.783-7.212,8.068-8.722,13.446-1.616,5.751.294,9.977,5.888,11.875C760.061,607.242,763.23,607.289,767.391,607.928ZM477.3,670.031c2.576-.441,6.006-.955,9.4-1.621,18.371-3.6,35.406-10.875,52.034-19.179,13.171-6.577,25.972-13.845,36.932-23.8,4.13-3.756,10.738-7.835,7.96-14.07-2.823-6.34-10.39-4.332-15.768-3.219A220.228,220.228,0,0,0,475.171,651.2a35.749,35.749,0,0,0-7.8,8.49c-3.371,5.2-1.522,8.954,4.416,10.008A53.408,53.408,0,0,0,477.3,670.031Zm48.186,35.5c29.809-3.837,59.5-14.532,85.281-34.9,4.306-3.4,10.28-7.583,7.283-14.143-2.841-6.218-9.874-5.465-15.493-4.923a169.642,169.642,0,0,0-87.093,33.973c-4.533,3.407-10.316,7.767-8.57,13.924C509.065,707.137,516.922,704.728,525.482,705.533Zm118.874-80.565c27.7-4.509,52.163-16.662,72.216-37.308,3.752-3.862,7.948-8.811,4.882-14.366-3.2-5.795-9.547-5.332-15.46-4.274C680.943,573.5,659.427,585,640.669,601.928a40.3,40.3,0,0,0-6.047,7c-2.415,3.49-5.129,7.322-2.443,11.7C634.746,624.807,639.485,624.288,644.355,624.968Z" transform="translate(-85.564 -130.892)"/><path class="c" d="M774.021,184q.009.792.015,1.587l-16.29.152c0-.579.007-1.16.012-1.739Z" transform="translate(380.481 -184)"/><path class="d" d="M1059.754,713.055c-11.392-.435-24.839-4.057-37.729-9.46a253.172,253.172,0,0,1-98.149-72.281,119.076,119.076,0,0,1-16.371-25.28,72.4,72.4,0,0,1-4.547-11.911c-5.39-19.967,3.886-32.7,24.658-33.861,10.984-.611,21.667,1.662,31.905,5.226q70.454,24.531,115.786,83.935A90.282,90.282,0,0,1,1089.6,675.88C1097.233,698.963,1086.8,713.158,1059.754,713.055Z" transform="translate(480.118 76.805)"/><path class="d" d="M832.483,500.556c37.057,1.6,69.058,15.037,95.36,41.446,7.441,7.471,13.222,16.127,16.323,26.379,4.916,16.241-.675,30.068-15.477,38.359-10.131,5.674-21.281,7.328-32.509,7.027-37.605-1.008-69.973-14.824-96.6-41.482-8-8.008-14.164-17.352-16.869-28.634-3.609-15.042,1.666-27.625,15.012-35.475C808.455,501.863,820.241,500.388,832.483,500.556Z" transform="translate(397.025 35.47)"/><path class="d" d="M889.179,532.735c-31.667-1.755-59.355-12.768-81.957-35.524a63.507,63.507,0,0,1-12.1-16.906c-10.533-21.507-2.909-40.31,19.668-48,12.352-4.2,24.963-4.4,37.792-2.32,24.318,3.944,45.769,13.8,63.917,30.49,8.637,7.944,15.568,17.157,18.883,28.7,4.412,15.366-.841,28.562-14.826,36.4C910.86,531.02,900.265,532.811,889.179,532.735Z" transform="translate(403.164 -14.346)"/><path class="e" d="M748.724,472.417c18.022-.093,35.348,3.15,51.531,11.379,7.654,3.893,14.558,8.808,19.958,15.6,11.324,14.238,10.574,29.752-2.078,42.8-11.286,11.637-25.775,17.064-41.162,19.74-22.472,3.906-44.673,2.245-66.042-6.4-9.047-3.661-17.351-8.611-24.157-15.684-14.545-15.118-14.056-33.9,1.533-47.983,14.776-13.345,33.156-17.578,52.3-19.415C743.289,472.2,746.018,472.417,748.724,472.417Z" transform="translate(323.961 15.908)"/><path class="e" d="M133.931,558.57a376.86,376.86,0,0,1,128.692,25.77,120.739,120.739,0,0,1,24.745,12.553,47.667,47.667,0,0,1,8.871,7.371c6,6.754,4.718,12.773-3.691,16.441-8.961,3.91-18.638,4.9-28.323,5.117-33.066.727-65.386-4.593-97.338-12.512-18.757-4.648-37.165-10.4-54.664-18.769-6.284-3-12.488-6.184-17.946-10.539-4.506-3.594-9.947-7.314-8.463-14.005,1.333-6.011,7.176-7.679,12.468-8.99a73.051,73.051,0,0,1,13.645-2.333C119.243,558.288,126.593,558.57,133.931,558.57Z" transform="translate(-85.564 75.632)"/><path class="e" d="M760.911,489.092c-16.075.237-31.641-3.671-45.371-13.411-23.758-16.85-23.619-43.727.144-60.587,24.947-17.7,67.371-17.729,92.233-.064,14.7,10.443,20.835,24.335,17.052,38.727-2.152,8.184-7.038,14.564-13.538,19.758C796.841,485.173,779.883,489.381,760.911,489.092Z" transform="translate(338.914 -32.993)"/><path class="e" d="M411.577,644c-20.638.218-39.859-1.143-58.591-6.8-6.343-1.915-12.478-4.269-17.882-8.1-10.309-7.309-10.732-15.557-1.336-23.828,5.3-4.672,11.653-7.556,18.156-10.111,17.846-7.014,36.642-9.693,55.54-11.046,22.42-1.6,44.851-.959,66.98,3.783,8.348,1.79,16.525,4.137,24.042,8.268,15.719,8.639,15.962,20.02.65,29.756-7.9,5.029-16.623,8.25-25.624,10.626A224.264,224.264,0,0,1,411.577,644Z" transform="translate(81.854 92.866)"/><path class="e" d="M651.568,476.316c11.408-.022,22.449,1.695,32.509,7.27,15.112,8.375,18.468,23.146,8.607,37.36a57.346,57.346,0,0,1-16.812,15.813c-23.168,14.579-48.314,20.049-75.418,15.933a47.183,47.183,0,0,1-16.344-5.729c-15.166-8.658-18.435-22.74-8.558-37.262a57.536,57.536,0,0,1,15.814-15.194C609.572,482.241,629.888,477.014,651.568,476.316Z" transform="translate(250.255 18.672)"/><path class="e" d="M459.109,602.724c-7.153-.739-15.242-1.389-23.27-2.489a42.446,42.446,0,0,1-9.982-2.916c-14.268-5.774-16.479-15.763-6.045-26.839a58.3,58.3,0,0,1,12.864-9.806c18.552-11.078,38.936-16.807,60.037-20.124,17.617-2.769,35.333-3.678,53.057-.406,5.761,1.062,11.347,2.552,16.227,5.843,7.8,5.257,9.139,12.212,3.654,19.859-4.816,6.716-11.422,11.47-18.61,15.4-19.944,10.9-41.478,16.672-63.881,19.445C475.5,601.641,467.772,602.01,459.109,602.724Z" transform="translate(141.675 61.478)"/><path class="e" d="M780.178,331.776c9.089-.325,20.907,2.7,31.448,10.025,18.154,12.624,21.234,34.373,7.393,51.6-18.872,23.49-61.76,28.374-85.453,9.729-16.622-13.081-19.065-33.98-5.427-50.188C740.689,338.026,757.381,331.989,780.178,331.776Z" transform="translate(353.836 -81.559)"/><path class="e" d="M306.114,608.378c-18.068-.769-36.181-1.794-53.848-6.528-6.36-1.7-12.6-3.8-18.183-7.376-10.36-6.648-10.383-14.666-.125-21.786,5.459-3.79,11.623-6.084,17.936-7.94,24.353-7.156,49.32-9.117,74.53-8.025,14.266.618,28.514,1.98,42.379,5.82,7.1,1.964,14.126,4.181,20.156,8.548,8.567,6.2,8.6,13.221.127,19.726-5.593,4.293-12.165,6.663-18.81,8.766C349.423,606.176,327.843,607.436,306.114,608.378Z" transform="translate(12.005 74.225)"/><path class="e" d="M648.989,489.025a59.147,59.147,0,0,1-18.3-3.388c-14.371-5.466-19.505-17.477-13.694-31.777a42.227,42.227,0,0,1,8.783-13.536c19.546-20.224,43.358-30.342,71.561-29.92a39.949,39.949,0,0,1,11.36,2.047c17.857,5.581,23.7,19.9,14.7,36.391-5.513,10.1-13.839,17.531-23.337,23.736A100.654,100.654,0,0,1,648.989,489.025Z" transform="translate(281.265 -27.035)"/><path class="e" d="M578.247,476.017c8.543.035,17.066-.187,25.207,2.965,12.541,4.855,15.712,14.478,8.436,25.9a48.187,48.187,0,0,1-12.9,13.194c-26.805,19.138-56.749,27.413-89.542,25.345a40.19,40.19,0,0,1-15.623-4c-9.474-4.763-12.044-12.619-7.23-22.193,3.2-6.368,8.248-11.242,13.858-15.372C523.571,484.83,549.63,476.5,578.247,476.017Z" transform="translate(190.84 18.465)"/><path class="e" d="M783.749,260.6c2.264.232,6.224.142,9.911,1.1,15.177,3.954,27.014,12.2,30.568,28.3s-3.405,28.905-15.892,38.422c-16.99,12.949-35.915,15.851-55.629,6.942-23.051-10.417-28.739-36.635-12.438-56C751.138,266.464,765.349,260.534,783.749,260.6Z" transform="translate(361.906 -130.892)"/><path class="e" d="M681.811,429.531a54.711,54.711,0,0,1-5.8-.027c-20.5-2.2-29.583-17.536-21.687-36.52,10.514-25.278,47.261-45.028,73.816-39.673,15.731,3.173,23.6,15.565,19.405,31.034a37.379,37.379,0,0,1-4.677,10.552C728.48,416.858,707.538,427.528,681.811,429.531Z" transform="translate(306.817 -67.223)"/><path class="e" d="M773.509,185.089l16.29-.152c14.6,4.4,25.365,12.478,28.8,28.417a34.949,34.949,0,0,1-.89,17.079c-5.974,21.776-29.259,37.079-51.534,33.948-23.451-3.3-36.833-25.447-28.844-48.111,4.613-13.093,13.907-21.991,26.416-27.62C766.9,187.233,770.248,186.265,773.509,185.089Z" transform="translate(364.717 -183.35)"/><path class="e" d="M631.008,414.713c1.159,0,2.321-.059,3.473.008,18.891,1.114,25.206,12.993,15.44,29.108a56.082,56.082,0,0,1-10.243,12.5C621.221,473.114,599.929,484,575.04,487.514a40.047,40.047,0,0,1-14.922-.732c-12.612-2.955-16.826-11.428-11.535-23.442a32.175,32.175,0,0,1,3.966-7.033C572.6,430.965,599.519,418.5,631.008,414.713Z" transform="translate(233.914 -24.056)"/><path class="e" d="M363.142,577.991c-4.828-.325-12.221-.286-19.407-1.49-5.111-.855-11.372-1.783-12.852-8.171s3.651-9.686,7.937-12.927a72.767,72.767,0,0,1,16.138-8.99c29.572-12.274,60.248-18.862,92.388-18.032a52.881,52.881,0,0,1,15.928,2.593c10.7,3.675,11.86,9.983,3.2,17.616a64.184,64.184,0,0,1-16.766,10.174C422.944,570.614,394.9,576.872,363.142,577.991Z" transform="translate(84.343 54.722)"/><path class="d" d="M433.6,537.7c-5.773-.735-12.783.97-15.716-5.309-3.253-6.965,2.545-11.633,7.09-15.633,19.3-16.987,42.43-26.505,66.834-33.36a120.111,120.111,0,0,1,23.966-4.05,25.442,25.442,0,0,1,11.386,1.741c4.814,1.939,6.211,5.354,4.276,10.247a22.9,22.9,0,0,1-7.062,9.073C497.934,522.181,467.334,533.783,433.6,537.7Z" transform="translate(144.189 20.729)"/><path class="d" d="M495.026,491.668c-4.16-.638-7.33-.686-10.186-1.656-5.593-1.9-7.5-6.125-5.888-11.875,1.511-5.378,4.87-9.664,8.722-13.447a127.878,127.878,0,0,1,69.886-35.717c6.861-1.151,14.82-1.685,18.848,5.231,4.2,7.205-.955,13.454-5.695,18.51C549.893,474.924,524.1,487.46,495.026,491.668Z" transform="translate(186.801 -14.633)"/><path class="d" d="M321.653,528.223a53.413,53.413,0,0,1-5.513-.335c-5.939-1.053-7.788-4.8-4.417-10.007a35.731,35.731,0,0,1,7.8-8.49,220.221,220.221,0,0,1,92.688-43.058c5.378-1.113,12.945-3.121,15.768,3.219,2.777,6.235-3.831,10.314-7.961,14.07-10.959,9.958-23.761,17.226-36.932,23.8-16.628,8.3-33.663,15.577-52.034,19.179C327.659,527.268,324.228,527.783,321.653,528.223Z" transform="translate(70.08 10.915)"/><path class="d" d="M353.1,545.593c-8.56-.8-16.417,1.6-18.591-6.064-1.745-6.157,4.037-10.517,8.57-13.925a169.651,169.651,0,0,1,87.093-33.973c5.618-.542,12.651-1.3,15.492,4.922,3,6.56-2.977,10.741-7.283,14.143C412.6,531.061,382.91,541.756,353.1,545.593Z" transform="translate(86.817 29.048)"/><path class="d" d="M421,498.951c-4.87-.679-9.61-.161-12.177-4.342-2.686-4.377.029-8.209,2.444-11.7a40.291,40.291,0,0,1,6.047-7c18.759-16.923,40.274-28.427,65.323-32.909,5.913-1.058,12.263-1.52,15.46,4.274,3.067,5.555-1.13,10.5-4.882,14.367C473.163,482.288,448.7,494.442,421,498.951Z" transform="translate(137.791 -4.876)"/></g></svg>